<svg width="16" height="16" viewBox="0 0 16 16" fill="none" xmlns="http://www.w3.org/2000/svg">
<g clip-path="url(#clip0_1_294)">
<path d="M7.99993 12.0001C6.10368 12.0001 4.56869 10.5323 4.42744 8.67232L1.80494 6.64557C1.46019 7.07807 1.14294 7.53532 0.886944 8.03532C0.829755 8.14844 0.799958 8.27343 0.799958 8.40019C0.799958 8.52695 0.829755 8.65194 0.886944 8.76507C2.24269 11.4103 4.92669 13.2001 7.99993 13.2001C8.67268 13.2001 9.32168 13.1001 9.94718 12.9386L8.64993 11.9348C8.43568 11.9762 8.21812 11.998 7.99993 12.0001ZM15.8454 13.4526L13.0817 11.3166C13.9212 10.609 14.6117 9.74164 15.1129 8.76482C15.1701 8.65169 15.1999 8.5267 15.1999 8.39994C15.1999 8.27318 15.1701 8.14819 15.1129 8.03507C13.7572 5.38982 11.0732 3.60007 7.99993 3.60007C6.71281 3.60163 5.44659 3.92566 4.31694 4.54257L1.13644 2.08432C1.09497 2.05204 1.04754 2.02826 0.996872 2.01432C0.946202 2.00039 0.893283 1.99657 0.841138 2.00309C0.788993 2.00962 0.738645 2.02635 0.69297 2.05234C0.647295 2.07833 0.60719 2.11307 0.574945 2.15457L0.0841958 2.78632C0.0190955 2.87006 -0.0100755 2.97624 0.00309852 3.08149C0.0162725 3.18674 0.0707127 3.28245 0.154446 3.34757L14.8634 14.7158C14.9049 14.7481 14.9523 14.7719 15.003 14.7858C15.0537 14.7997 15.1066 14.8036 15.1587 14.797C15.2109 14.7905 15.2612 14.7738 15.3069 14.7478C15.3526 14.7218 15.3927 14.6871 15.4249 14.6456L15.9159 14.0138C15.981 13.93 16.0101 13.8238 15.9969 13.7186C15.9837 13.6133 15.9292 13.5176 15.8454 13.4526ZM11.2524 9.90257L10.2699 9.14307C10.3527 8.90393 10.3966 8.65309 10.3999 8.40007C10.4048 8.02963 10.3227 7.66322 10.1603 7.33025C9.9979 6.99729 9.75965 6.70706 9.46472 6.48287C9.16978 6.25868 8.82638 6.10679 8.4621 6.0394C8.09781 5.97201 7.7228 5.99099 7.36718 6.09482C7.51793 6.29909 7.59948 6.54619 7.59993 6.80007C7.5962 6.88455 7.58329 6.96838 7.56143 7.05007L5.72118 5.62782C6.36043 5.09362 7.16686 4.80068 7.99993 4.80007C8.47276 4.7998 8.94101 4.89274 9.3779 5.07356C9.81479 5.25439 10.2118 5.51955 10.5461 5.85389C10.8804 6.18824 11.1456 6.5852 11.3264 7.02209C11.5072 7.45899 11.6002 7.92723 11.5999 8.40007C11.5999 8.94082 11.4677 9.44482 11.2524 9.90282V9.90257Z" fill="black"/>
</g>
<defs>
<clipPath id="clip0_1_294">
<rect width="16" height="16" fill="white"/>
</clipPath>
</defs>
</svg>
