<svg width="16" height="16" viewBox="0 0 16 16" fill="none" xmlns="http://www.w3.org/2000/svg">
<path d="M15.9033 7.91707C14.397 4.98429 11.4147 3 8 3C4.58527 3 1.60221 4.98568 0.0966517 7.91735C0.0331076 8.04278 0 8.18135 0 8.32189C0 8.46243 0.0331076 8.601 0.0966517 8.72642C1.60304 11.6592 4.58527 13.6435 8 13.6435C11.4147 13.6435 14.3978 11.6578 15.9033 8.72615C15.9669 8.60072 16 8.46215 16 8.32161C16 8.18107 15.9669 8.0425 15.9033 7.91707ZM8 12.3131C7.20887 12.3131 6.43551 12.079 5.77771 11.6404C5.11992 11.2018 4.60723 10.5785 4.30447 9.84916C4.00172 9.11984 3.92251 8.31732 4.07685 7.54308C4.23119 6.76884 4.61216 6.05766 5.17157 5.49947C5.73098 4.94127 6.44371 4.56113 7.21964 4.40713C7.99556 4.25312 8.79983 4.33216 9.53074 4.63426C10.2616 4.93635 10.8864 5.44793 11.3259 6.10429C11.7654 6.76066 12 7.53234 12 8.32175C12.0003 8.84597 11.897 9.3651 11.696 9.84946C11.4951 10.3338 11.2005 10.7739 10.829 11.1446C10.4575 11.5153 10.0165 11.8093 9.53104 12.0098C9.04562 12.2103 8.52536 12.3133 8 12.3131ZM8 5.66087C7.76198 5.66419 7.5255 5.69953 7.29694 5.76592C7.48534 6.02139 7.57574 6.33576 7.55177 6.65203C7.52779 6.96831 7.39101 7.26553 7.16625 7.48981C6.94148 7.71409 6.64361 7.85056 6.32665 7.87449C6.00969 7.89842 5.69463 7.80821 5.43861 7.62022C5.29282 8.15616 5.31914 8.72423 5.51385 9.24446C5.70857 9.7647 6.06188 10.2109 6.52406 10.5203C6.98623 10.8297 7.534 10.9866 8.09027 10.9691C8.64653 10.9516 9.18328 10.7604 9.62497 10.4225C10.0667 10.0847 10.391 9.6171 10.5525 9.08564C10.7139 8.55418 10.7042 7.98559 10.5248 7.4599C10.3454 6.9342 10.0053 6.47788 9.5524 6.15516C9.09948 5.83244 8.55654 5.65957 8 5.66087Z" fill="black"/>
</svg>
